<?xml version="1.0" encoding="UTF-8" standalone="no"?>
<svg
   width="230"
   height="60"
   viewBox="0 0 230 60"
   fill="none"
   version="1.1"
   id="svg10"
   sodipodi:docname="logo.svg"
   xml:space="preserve"
   inkscape:version="1.3.2 (091e20e, 2023-11-25, custom)"
   xmlns:inkscape="http://www.inkscape.org/namespaces/inkscape"
   xmlns:sodipodi="http://sodipodi.sourceforge.net/DTD/sodipodi-0.dtd"
   xmlns="http://www.w3.org/2000/svg"
   xmlns:svg="http://www.w3.org/2000/svg"><defs
     id="defs10" /><sodipodi:namedview
     id="namedview10"
     pagecolor="#ffffff"
     bordercolor="#000000"
     borderopacity="0.25"
     inkscape:showpageshadow="2"
     inkscape:pageopacity="0.0"
     inkscape:pagecheckerboard="0"
     inkscape:deskcolor="#d1d1d1"
     inkscape:zoom="2.0706522"
     inkscape:cx="88.136483"
     inkscape:cy="203.55905"
     inkscape:window-width="2880"
     inkscape:window-height="1694"
     inkscape:window-x="-11"
     inkscape:window-y="-11"
     inkscape:window-maximized="1"
     inkscape:current-layer="g10" /><g
     style="fill:none"
     id="g10"
     transform="matrix(0.20468734,0,0,0.20468734,12.400024,-0.19682801)"><path
       d="m 498.4,212.2 v -3.6 h 0.1 c 14.9,0 19,-4.3 19,-20.1 v -54.2 c 0,-21.7 -6.6,-31.4 -21.3,-31.4 -9.3,0 -19.3,5.2 -29.6,15.5 l -0.4,0.4 v 69.6 c 0,15 4.6,19.8 19.4,20.1 v 3.6 h -64.4 v -3.6 c 15,-0.3 19.4,-4.9 19.4,-20.1 V 123 c 0,-14.9 -3,-20.4 -11.2,-20.4 -2.7,0 -6.9,1 -10.3,2.2 V 101 l 37.4,-11.4 c 1.5,-0.4 2.8,-0.6 4,-0.6 3.7,0 5.6,2.3 5.6,6.8 v 14.9 l 2.3,-2.7 c 13.7,-16.2 25.2,-22.6 41,-22.6 22.5,0 33.5,14.4 33.5,43.9 v 59.3 c 0,15.2 4.8,20.1 19.7,20.1 v 3.6 h -64.2 z"
       fill="#173b3f"
       id="path1"
       style="fill:#ffffff" /><path
       d="m 615.3,216.1 c -16.1,0 -28.7,-5.5 -38.4,-17 -9.6,-11.2 -14.5,-26 -14.5,-43.8 0,-19.3 5.7,-35.3 17.4,-49.1 11.7,-14.1 26.3,-20.9 44.8,-20.9 11.7,0 20.8,3.3 26.9,9.7 l 2.3,2.4 v -35 c 0,-19.1 -3.1,-25.2 -12.9,-25.2 -2.4,0 -6.6,0.9 -9.6,1.9 l 0.1,-3.9 41.5,-13 c 0.5,-0.1 1,-0.2 1.5,-0.2 2.7,0 4.9,2.2 4.9,4.9 v 148.9 c 0,19.6 3.2,29.3 10.5,31.3 1.7,0.5 5.9,0.9 11.5,1 v 3.7 l -40.4,-0.4 h -7.1 v -12.7 l -2.2,1.9 c -11.9,10.5 -23.8,15.5 -36.3,15.5 z m 9.5,-123.2 c -20,0 -33.5,21.2 -33.5,52.7 0,33.3 15.6,56.6 37.8,56.6 7.9,0 16.1,-3.9 24.4,-11.6 l 0.4,-0.4 v -57.9 c 0.1,-25 -10.5,-39.4 -29.1,-39.4 z"
       fill="#173b3f"
       id="path2"
       style="fill:#ffffff" /><path
       d="m 756,216.1 c -16.6,0 -30.1,-5.8 -41.4,-17.8 -10.7,-12 -16.2,-27.3 -16.2,-45.4 0,-19.8 5.4,-36.1 15.9,-48.6 10.7,-12.6 25,-18.9 42.5,-18.9 30.3,0 50,19.1 50.6,48.8 h -88.7 v 1.3 c 0,35.1 17.5,56.9 45.7,56.9 17.9,0 31.2,-8.7 39.6,-26 l 3,2.2 c -2.7,13.4 -8.6,24.7 -17.5,33.6 -9.4,9.4 -20.3,13.9 -33.5,13.9 z M 750.2,93.4 c -16.6,0 -30,13.9 -31.2,32.4 l -0.1,1.4 h 59.9 l -0.1,-1.4 C 777.6,105.2 767.2,93.4 750.2,93.4 Z"
       fill="#173b3f"
       id="path3"
       style="fill:#ffffff" /><path
       d="M 824.8,212.2 V 63.5 c 0,-18.2 -3.3,-24.3 -12.9,-24.3 -2.7,0 -7,0.7 -10,1.7 v -3.4 l 40.7,-15.3 c 0.5,-0.2 1.1,-0.3 1.7,-0.3 h 1.1 c 2.7,0 4.9,2.2 4.9,4.9 v 161.8 c 0,14.4 5.1,19.8 19.4,20.1 v 3.6 h -44.9 z"
       fill="#173b3f"
       id="path4"
       style="fill:#ffffff" /><path
       d="M 959.2,216.1 C 949,216.1 944,210.2 943.7,198 l -0.1,-2.8 -2.1,1.8 c -14.5,12.6 -27.3,19.1 -38,19.1 -19.4,0 -31.5,-11.6 -31.5,-30.1 0,-10 5.1,-18.9 15.4,-27.1 10.6,-8.3 29.2,-17 55.3,-25.9 l 0.9,-0.3 v -0.9 c 0,-24.7 -3.7,-38.9 -22.8,-38.9 -16.2,0 -19.6,8.8 -19.6,16.2 0,13.3 -4.2,19.8 -12.9,19.8 -7,0 -11.7,-4.9 -11.7,-12.2 0,-8.4 4.2,-15.5 12.8,-21.7 8.9,-6.4 20.8,-9.6 35.5,-9.6 29.7,0 44.2,12.2 44.2,37.2 V 179 c 0,16 2.4,19.8 6.6,21.1 0.4,0.1 0.8,0.2 1.3,0.2 2.4,0 5.3,-1.9 8.7,-5.5 l 2.8,3.4 c -9.3,11.9 -19.2,17.9 -29.3,17.9 z m -17.3,-76 c -33.7,13.7 -44,23.1 -44,40 0,11.3 8.2,19.8 19,19.8 7.2,0 15.8,-3.7 26.3,-11.2 l 0.5,-0.4 v -48.9 z"
       fill="#173b3f"
       id="path5"
       style="fill:#ffffff" /><path
       d="m 389,216.1 c -10.2,0 -15.2,-5.9 -15.5,-18.1 l -0.1,-2.8 -2.1,1.8 c -14.5,12.6 -27.3,19.1 -38,19.1 -19.4,0 -31.5,-11.6 -31.5,-30.1 0,-10 5.1,-18.9 15.4,-27.1 10.6,-8.3 29.2,-17 55.3,-25.9 l 0.9,-0.3 v -0.9 c 0,-24.7 -3.7,-38.9 -22.8,-38.9 -16.2,0 -19.6,8.8 -19.6,16.2 0,13.3 -4.2,19.8 -12.9,19.8 -7,0 -11.7,-4.9 -11.7,-12.2 0,-8.4 4.2,-15.5 12.8,-21.7 8.8,-6.4 20.8,-9.6 35.5,-9.6 29.8,0 44.2,12.2 44.2,37.2 V 179 c 0,16 2.4,19.8 6.6,21.1 0.4,0.1 0.8,0.2 1.3,0.2 2.4,0 5.3,-1.8 8.7,-5.5 l 2.8,3.4 c -9.3,11.9 -19.1,17.9 -29.3,17.9 z m -17.3,-76 c -33.7,13.7 -44,23 -44,40 0,11.3 8.2,19.8 19,19.8 7.2,0 15.8,-3.7 26.3,-11.2 l 0.5,-0.4 v -48.9 z"
       fill="#173b3f"
       id="path6"
       style="fill:#ffffff" /><path
       d="m 218.3,76.6 -0.1,-0.1 -1.3,-0.8 -0.3,-0.2 -70.2,-40.5 -1.2,-0.7 c -6,-3.4 -12.9,-5.3 -20.3,-5.3 -7.4,0 -14.3,1.9 -20.2,5.3 l -1,0.6 -0.3,0.2 -70.6,40.7 -1.4,0.8 H 31.3 C 19.4,83.9 11.4,97.1 11.4,112.1 v 83 c 0,15.1 8,28.2 20,35.5 l 0.9,0.5 71.9,41.5 c 6.1,3.5 13.1,5.5 20.7,5.5 7.5,0 14.6,-2 20.7,-5.5 l 71.8,-41.5 0.2,-0.1 c 12.4,-7.2 20.8,-20.6 20.8,-36 V 112 C 238.3,97 230.3,83.8 218.3,76.6 Z m 3.1,78.2 H 221 c -52.3,0.2 -94.9,43 -94.9,95.3 0,0.7 -0.6,1.2 -1.2,1.2 -0.7,0 -1.2,-0.6 -1.2,-1.2 v -0.4 c -0.2,-52.3 -43,-94.9 -95.3,-94.9 -0.7,0 -1.2,-0.6 -1.2,-1.2 0,-0.7 0.6,-1.2 1.2,-1.2 h 0.4 c 52.3,-0.2 94.9,-43 94.9,-95.3 0,-0.7 0.6,-1.2 1.2,-1.2 0.7,0 1.2,0.6 1.2,1.2 0,52.5 42.7,95.3 95.3,95.3 0.7,0 1.2,0.6 1.2,1.2 0.1,0.7 -0.5,1.2 -1.2,1.2 z"
       fill="#173b3f"
       id="path7"
       style="fill:#ffffff" /></g></svg>
